<svg width="51" height="51" viewBox="0 0 51 51" fill="none" xmlns="http://www.w3.org/2000/svg">
<g clip-path="url(#clip0_3140_22377)">
<path d="M19.6042 24.6203C19.0375 25.4838 19.0476 26.6707 19.6417 27.5113C20.0639 28.1085 20.6358 28.4575 21.3933 28.4718C21.9418 28.4757 22.4112 28.2838 22.8083 27.9213C23.7051 27.1025 23.8819 25.6635 23.2163 24.6326C22.3393 23.2735 20.4917 23.2672 19.6038 24.6203H19.6042Z" fill="#BA9AE2"/>
<path d="M27.874 24.501C27.1617 25.4572 27.2125 26.8387 28.004 27.7328C28.4233 28.2065 28.95 28.4744 29.6026 28.4704C30.1382 28.4673 30.6217 28.2753 31.0132 27.9104C31.9285 27.0568 32.0722 25.5656 31.3385 24.5358C30.4687 23.3149 28.7704 23.2979 27.874 24.5014V24.501Z" fill="#BA9AE2"/>
<path d="M25.5 5.5C14.4545 5.5 5.5 14.2806 5.5 25.1117C5.5 35.9427 14.4545 44.7233 25.5 44.7233C36.5455 44.7233 45.5 35.9427 45.5 25.1117C45.5 14.2806 36.5455 5.5 25.5 5.5ZM37.7296 31.0056C37.7147 31.1813 37.6493 31.3005 37.498 31.4073C35.721 32.6587 33.7918 33.6113 31.7105 34.2714C31.5228 34.3308 31.4191 34.3149 31.3041 34.1452C30.9352 33.6026 30.5857 33.0493 30.2608 32.4798C30.1449 32.2772 30.1579 32.1901 30.3879 32.1094C30.8884 31.9337 31.3686 31.7085 31.8287 31.4477C31.9433 31.3828 32.1774 31.386 32.127 31.1719C32.0838 30.9886 31.6822 30.8556 31.4921 30.9368C30.8928 31.1916 30.2846 31.4208 29.6574 31.6024C26.2107 32.6017 22.8464 32.3552 19.5543 30.9728C19.4381 30.9241 19.3178 30.803 19.1858 30.8928C19.0526 30.9835 18.8496 31.0515 18.8274 31.2094C18.8052 31.3681 19.0224 31.3864 19.1382 31.4501C19.6108 31.7105 20.0995 31.9416 20.6097 32.1252C20.7796 32.1866 20.822 32.2586 20.7271 32.4323C20.3962 33.0363 20.0321 33.6184 19.6306 34.1796C19.5398 34.3062 19.4643 34.3339 19.3041 34.2841C17.1973 33.6263 15.2524 32.6575 13.456 31.3958C13.3156 31.2969 13.2498 31.1865 13.2429 31.0199C13.2167 30.3894 13.1461 29.7602 13.1666 29.1974C13.1569 24.9241 14.4492 21.1157 16.7982 17.6275C16.8817 17.5033 16.9826 17.4209 17.119 17.3612C18.622 16.7026 20.1851 16.2364 21.8023 15.9369C21.9649 15.9068 22.0453 15.9464 22.1131 16.0876C22.2636 16.4019 22.4351 16.7062 22.5824 17.0216C22.647 17.1597 22.7075 17.2104 22.8787 17.1863C24.6141 16.9425 26.352 16.9468 28.087 17.1855C28.2751 17.2112 28.3405 17.1506 28.4067 17.005C28.5471 16.6983 28.7045 16.3991 28.8494 16.0944C28.9132 15.9606 28.9866 15.9036 29.1569 15.9345C30.7749 16.2297 32.3356 16.703 33.8414 17.3545C33.9912 17.4194 34.0921 17.5163 34.1817 17.6477C36.035 20.3749 37.2445 23.3426 37.6578 26.6056C37.8431 28.0687 37.8531 29.5362 37.7296 31.0056Z" fill="#BA9AE2"/>
</g>
<defs>
<clipPath id="clip0_3140_22377">
<rect width="40" height="39.2233" fill="white" transform="translate(5.5 5.5)"/>
</clipPath>
</defs>
</svg>
