<svg width="51" height="51" viewBox="0 0 51 51" fill="none" xmlns="http://www.w3.org/2000/svg">
<g clip-path="url(#clip0_3140_22374)">
<path d="M27.556 5.50246C29.0154 5.49686 30.4748 5.51153 31.9338 5.54646L32.3218 5.56046C32.7698 5.57646 33.2117 5.59646 33.7457 5.62045C35.8736 5.72045 37.3255 6.05643 38.5995 6.55041C39.9194 7.05838 41.0313 7.74635 42.1433 8.85829C43.16 9.85745 43.9468 11.0661 44.4492 12.4001C44.9431 13.674 45.2791 15.128 45.3791 17.2559C45.4031 17.7878 45.4231 18.2318 45.4391 18.6798L45.4511 19.0678C45.4866 20.5261 45.502 21.9848 45.4971 23.4435L45.4991 24.9355V27.5553C45.504 29.0147 45.4887 30.4741 45.4531 31.9331L45.4411 32.3211C45.4251 32.7691 45.4051 33.211 45.3811 33.745C45.2811 35.8729 44.9411 37.3248 44.4492 38.5988C43.9485 39.9342 43.1614 41.1438 42.1433 42.1426C41.1432 43.1592 39.934 43.946 38.5995 44.4485C37.3255 44.9424 35.8736 45.2784 33.7457 45.3784C33.2117 45.4024 32.7698 45.4224 32.3218 45.4384L31.9338 45.4504C30.4748 45.486 29.0154 45.5013 27.556 45.4964L26.0641 45.4984H23.4462C21.9868 45.5033 20.5274 45.488 19.0685 45.4524L18.6805 45.4404C18.2057 45.4232 17.7311 45.4032 17.2565 45.3804C15.1287 45.2804 13.6767 44.9404 12.4008 44.4485C11.0662 43.9472 9.85741 43.1602 8.85898 42.1426C7.84112 41.1432 7.05352 39.9338 6.5511 38.5988C6.05713 37.3248 5.72114 35.8729 5.62115 33.745C5.59887 33.2705 5.57888 32.7958 5.56115 32.3211L5.55115 31.9331C5.51428 30.4741 5.49761 29.0147 5.50115 27.5553V23.4435C5.49557 21.9848 5.51024 20.5261 5.54515 19.0678L5.55915 18.6798C5.57515 18.2318 5.59515 17.7878 5.61915 17.2559C5.71914 15.126 6.05513 13.676 6.5491 12.4001C7.05182 11.0654 7.84096 9.85713 8.86098 8.86029C9.85872 7.84184 11.0668 7.05353 12.4008 6.55041C13.6767 6.05643 15.1267 5.72045 17.2565 5.62045L18.6805 5.56046L19.0685 5.55046C20.5267 5.51361 21.9855 5.49694 23.4442 5.50046L27.556 5.50246ZM25.5001 15.5019C24.1752 15.4832 22.8598 15.728 21.6303 16.222C20.4008 16.7161 19.2817 17.4496 18.3382 18.3799C17.3946 19.3102 16.6454 20.4188 16.134 21.6412C15.6226 22.8635 15.3592 24.1754 15.3592 25.5004C15.3592 26.8255 15.6226 28.1373 16.134 29.3597C16.6454 30.5821 17.3946 31.6907 18.3382 32.621C19.2817 33.5513 20.4008 34.2848 21.6303 34.7788C22.8598 35.2729 24.1752 35.5177 25.5001 35.4989C28.1522 35.4989 30.6956 34.4454 32.5708 32.5701C34.4461 30.6949 35.4996 28.1515 35.4996 25.4994C35.4996 22.8474 34.4461 20.304 32.5708 18.4287C30.6956 16.5535 28.1522 15.5019 25.5001 15.5019ZM25.5011 19.5007C25.5008 19.5011 25.501 19.5017 25.5016 19.5017C26.298 19.4872 27.0895 19.6315 27.8296 19.9261C28.5702 20.2209 29.2446 20.6604 29.8135 21.2187C30.3823 21.7771 30.8342 22.4433 31.1427 23.1782C31.4512 23.9132 31.6102 24.7023 31.6103 25.4994C31.6105 26.2965 31.4518 27.0857 31.1435 27.8208C30.8352 28.5558 30.3836 29.2221 29.8149 29.7807C29.2462 30.3393 28.5719 30.7789 27.8315 31.074C27.091 31.369 26.2991 31.5135 25.5021 31.4991C23.9109 31.4991 22.3849 30.867 21.2597 29.7419C20.1345 28.6167 19.5024 27.0907 19.5024 25.4994C19.5024 23.9082 20.1345 22.3822 21.2597 21.257C22.3845 20.1322 23.91 19.5001 25.5007 19.4997C25.5012 19.4997 25.5015 19.5004 25.5011 19.5007ZM35.9996 12.5001C35.9996 12.5012 35.9987 12.5021 35.9976 12.5022C35.3532 12.5285 34.7438 12.8029 34.2969 13.268C33.8495 13.7336 33.5997 14.3543 33.5997 15C33.5997 15.6457 33.8495 16.2663 34.2969 16.7319C34.7442 17.1976 35.3544 17.472 35.9996 17.4978C36.6626 17.4978 37.2985 17.2345 37.7673 16.7656C38.2361 16.2968 38.4995 15.661 38.4995 14.998C38.4995 14.335 38.2361 13.6991 37.7673 13.2303C37.2989 12.762 36.6639 12.4986 36.0016 12.4981C36.0005 12.4981 35.9996 12.499 35.9996 12.5001Z" fill="#BA9AE2"/>
</g>
<defs>
<clipPath id="clip0_3140_22374">
<rect x="5.5" y="5.5" width="40" height="40" rx="20" fill="white"/>
</clipPath>
</defs>
</svg>
