<svg width="51" height="51" viewBox="0 0 51 51" fill="none" xmlns="http://www.w3.org/2000/svg">
<g clip-path="url(#clip0_3140_22367)">
<path d="M24.896 5.5C13.6318 5.5 4.5 14.4545 4.5 25.5C4.5 36.5455 13.6318 45.5 24.896 45.5C36.1603 45.5 45.2921 36.5455 45.2921 25.5C45.2921 14.4545 36.1603 5.5 24.896 5.5ZM34.772 24.5479C32.8322 23.9438 31.0784 23.3973 29.2197 22.8181C29.2197 25.2296 29.272 27.7218 29.2086 30.2107C29.0802 35.2726 24.249 38.5312 19.5845 36.7457C16.508 35.568 14.6632 32.4091 15.2139 29.2627C15.7708 26.0816 18.7108 23.6209 22.0137 23.5894C22.3578 23.5862 22.7023 23.6822 23.1164 23.742V27.0405C22.3755 27.164 21.6548 27.1902 21.0029 27.4122C19.5249 27.9155 18.6655 29.3842 18.8795 30.8601C19.0997 32.378 20.462 33.5884 22.0339 33.6622C23.5382 33.7333 24.9582 32.734 25.3368 31.2589C25.4842 30.6841 25.5171 30.0695 25.5196 29.473C25.5361 25.3091 25.5307 21.1456 25.5319 16.9818C25.5319 16.4418 25.5319 15.9018 25.5319 15.1963C26.6086 15.1963 27.5228 15.1414 28.4233 15.2274C28.7176 15.2556 29.1712 15.6152 29.2206 15.882C29.7745 18.8831 31.758 20.3199 34.772 20.7852V24.5483V24.5479Z" fill="#BA9AE2"/>
</g>
<defs>
<clipPath id="clip0_3140_22367">
<rect width="40.7921" height="40" fill="white" transform="translate(4.5 5.5)"/>
</clipPath>
</defs>
</svg>
