<svg width="46" height="51" viewBox="0 0 46 51" fill="none" xmlns="http://www.w3.org/2000/svg">
<g clip-path="url(#clip0_3140_22383)">
<path d="M14.3633 15.5078L29.3102 35.4929H32.695L17.7481 15.5078H14.3633Z" fill="#BA9AE2"/>
<path d="M23.5 5.5C12.4544 5.5 3.5 14.4544 3.5 25.5C3.5 36.5456 12.4544 45.5 23.5 45.5C34.5456 45.5 43.5 36.5456 43.5 25.5C43.5 14.4544 34.5456 5.5 23.5 5.5ZM28.5124 37.0871L21.7075 27.9881L13.285 37.0871H11.1197L20.7397 26.6946L11.18 13.9125H18.5479L24.8151 22.2922L32.5715 13.9125H34.7368L25.7824 23.5861L35.8803 37.0871H28.5124Z" fill="#BA9AE2"/>
</g>
<defs>
<clipPath id="clip0_3140_22383">
<rect width="40" height="40" fill="white" transform="translate(3.5 5.5)"/>
</clipPath>
</defs>
</svg>
