<svg width="51" height="51" viewBox="0 0 51 51" fill="none" xmlns="http://www.w3.org/2000/svg">
<g clip-path="url(#clip0_3140_22362)">
<path d="M28.8396 25.1521L24.1604 22.9688C23.7521 22.7792 23.4167 22.9917 23.4167 23.4437V27.5563C23.4167 28.0083 23.7521 28.2208 24.1604 28.0312L28.8375 25.8479C29.2479 25.6562 29.2479 25.3438 28.8396 25.1521ZM25.5 5.5C14.4542 5.5 5.5 14.4542 5.5 25.5C5.5 36.5458 14.4542 45.5 25.5 45.5C36.5458 45.5 45.5 36.5458 45.5 25.5C45.5 14.4542 36.5458 5.5 25.5 5.5ZM25.5 33.625C15.2625 33.625 15.0833 32.7021 15.0833 25.5C15.0833 18.2979 15.2625 17.375 25.5 17.375C35.7375 17.375 35.9167 18.2979 35.9167 25.5C35.9167 32.7021 35.7375 33.625 25.5 33.625Z" fill="#BA9AE2"/>
</g>
<defs>
<clipPath id="clip0_3140_22362">
<rect width="40" height="40" fill="white" transform="translate(5.5 5.5)"/>
</clipPath>
</defs>
</svg>
