<svg width="41" height="40" viewBox="0 0 41 40" fill="none" xmlns="http://www.w3.org/2000/svg">
<g id="Discord" clip-path="url(#clip0_3340_22308)">
<g id="Layer_1-2">
<path id="Vector" d="M14.6042 19.6203C14.0375 20.4838 14.0476 21.6707 14.6417 22.5113C15.0639 23.1085 15.6358 23.4575 16.3933 23.4718C16.9418 23.4757 17.4112 23.2838 17.8083 22.9213C18.7051 22.1025 18.8819 20.6635 18.2163 19.6326C17.3393 18.2735 15.4917 18.2672 14.6038 19.6203H14.6042Z" fill="#BA9AE2"/>
<path id="Vector_2" d="M22.874 19.501C22.1617 20.4572 22.2125 21.8387 23.004 22.7328C23.4233 23.2065 23.95 23.4744 24.6026 23.4704C25.1382 23.4673 25.6217 23.2753 26.0132 22.9104C26.9285 22.0568 27.0722 20.5656 26.3385 19.5358C25.4687 18.3149 23.7704 18.2979 22.874 19.5014V19.501Z" fill="#BA9AE2"/>
<path id="Vector_3" d="M20.5 0.5C9.4545 0.5 0.5 9.28062 0.5 20.1117C0.5 30.9427 9.4545 39.7233 20.5 39.7233C31.5455 39.7233 40.5 30.9427 40.5 20.1117C40.5 9.28062 31.5455 0.5 20.5 0.5ZM32.7296 26.0056C32.7147 26.1813 32.6493 26.3005 32.498 26.4073C30.721 27.6587 28.7918 28.6113 26.7105 29.2714C26.5228 29.3308 26.4191 29.3149 26.3041 29.1452C25.9352 28.6026 25.5857 28.0493 25.2608 27.4798C25.1449 27.2772 25.1579 27.1901 25.3879 27.1094C25.8884 26.9337 26.3686 26.7085 26.8287 26.4477C26.9433 26.3828 27.1774 26.386 27.127 26.1719C27.0838 25.9886 26.6822 25.8556 26.4921 25.9368C25.8928 26.1916 25.2846 26.4208 24.6574 26.6024C21.2107 27.6017 17.8464 27.3552 14.5543 25.9728C14.4381 25.9241 14.3178 25.803 14.1858 25.8928C14.0526 25.9835 13.8496 26.0515 13.8274 26.2094C13.8052 26.3681 14.0224 26.3864 14.1382 26.4501C14.6108 26.7105 15.0995 26.9416 15.6097 27.1252C15.7796 27.1866 15.822 27.2586 15.7271 27.4323C15.3962 28.0363 15.0321 28.6184 14.6306 29.1796C14.5398 29.3062 14.4643 29.3339 14.3041 29.2841C12.1973 28.6263 10.2524 27.6575 8.45601 26.3958C8.31556 26.2969 8.24977 26.1865 8.24291 26.0199C8.21668 25.3894 8.14605 24.7602 8.16663 24.1974C8.15695 19.9241 9.44925 16.1157 11.7982 12.6275C11.8817 12.5033 11.9826 12.4209 12.119 12.3612C13.622 11.7026 15.1851 11.2364 16.8023 10.9369C16.9649 10.9068 17.0453 10.9464 17.1131 11.0876C17.2636 11.4019 17.4351 11.7062 17.5824 12.0216C17.647 12.1597 17.7075 12.2104 17.8787 12.1863C19.6141 11.9425 21.352 11.9468 23.087 12.1855C23.2751 12.2112 23.3405 12.1506 23.4067 12.005C23.5471 11.6983 23.7045 11.3991 23.8494 11.0944C23.9132 10.9606 23.9866 10.9036 24.1569 10.9345C25.7749 11.2297 27.3356 11.703 28.8414 12.3545C28.9912 12.4194 29.0921 12.5163 29.1817 12.6477C31.035 15.3749 32.2445 18.3426 32.6578 21.6056C32.8431 23.0687 32.8531 24.5362 32.7296 26.0056Z" fill="#BA9AE2"/>
</g>
</g>
<defs>
<clipPath id="clip0_3340_22308">
<rect width="40" height="39.2233" fill="white" transform="translate(0.5 0.5)"/>
</clipPath>
</defs>
</svg>
