<svg width="41" height="41" viewBox="0 0 41 41" fill="none" xmlns="http://www.w3.org/2000/svg">
<g id="ri:instagram-fill">
<g clip-path="url(#clip0_3340_22347)">
<path id="Vector" d="M22.556 0.502461C24.0154 0.496861 25.4748 0.511528 26.9338 0.546459L27.3218 0.560458C27.7698 0.576457 28.2117 0.596456 28.7457 0.620455C30.8736 0.720449 32.3255 1.05643 33.5995 1.55041C34.9194 2.05838 36.0313 2.74635 37.1433 3.85829C38.16 4.85745 38.9468 6.06607 39.4492 7.40011C39.9431 8.67404 40.2791 10.128 40.3791 12.2559C40.4031 12.7878 40.4231 13.2318 40.4391 13.6798L40.4511 14.0678C40.4866 15.5261 40.502 16.9848 40.4971 18.4435L40.4991 19.9355V22.5553C40.504 24.0147 40.4887 25.4741 40.4531 26.9331L40.4411 27.3211C40.4251 27.7691 40.4051 28.211 40.3811 28.745C40.2811 30.8729 39.9411 32.3248 39.4492 33.5988C38.9485 34.9342 38.1614 36.1438 37.1433 37.1426C36.1432 38.1592 34.934 38.946 33.5995 39.4485C32.3255 39.9424 30.8736 40.2784 28.7457 40.3784C28.2117 40.4024 27.7698 40.4224 27.3218 40.4384L26.9338 40.4504C25.4748 40.486 24.0154 40.5013 22.556 40.4964L21.0641 40.4984H18.4462C16.9868 40.5033 15.5274 40.488 14.0685 40.4524L13.6805 40.4404C13.2057 40.4232 12.7311 40.4032 12.2565 40.3804C10.1287 40.2804 8.67673 39.9404 7.4008 39.4485C6.06624 38.9472 4.85741 38.1602 3.85898 37.1426C2.84112 36.1432 2.05352 34.9338 1.5511 33.5988C1.05713 32.3248 0.721143 30.8729 0.621148 28.745C0.598875 28.2705 0.578875 27.7958 0.561151 27.3211L0.551152 26.9331C0.514281 25.4741 0.497613 24.0147 0.501154 22.5553V18.4435C0.495572 16.9848 0.51024 15.5261 0.545152 14.0678L0.559151 13.6798C0.57515 13.2318 0.595149 12.7878 0.619148 12.2559C0.719143 10.126 1.05513 8.67604 1.5491 7.40011C2.05182 6.06541 2.84096 4.85713 3.86098 3.86029C4.85872 2.84184 6.06679 2.05353 7.4008 1.55041C8.67673 1.05643 10.1267 0.720449 12.2565 0.620455L13.6805 0.560458L14.0685 0.550459C15.5267 0.513606 16.9855 0.496938 18.4442 0.500461L22.556 0.502461ZM20.5001 10.5019C19.1752 10.4832 17.8598 10.728 16.6303 11.222C15.4008 11.7161 14.2817 12.4496 13.3382 13.3799C12.3946 14.3102 11.6454 15.4188 11.134 16.6412C10.6226 17.8635 10.3592 19.1754 10.3592 20.5004C10.3592 21.8255 10.6226 23.1373 11.134 24.3597C11.6454 25.5821 12.3946 26.6907 13.3382 27.621C14.2817 28.5513 15.4008 29.2848 16.6303 29.7788C17.8598 30.2729 19.1752 30.5177 20.5001 30.4989C23.1522 30.4989 25.6956 29.4454 27.5708 27.5701C29.4461 25.6949 30.4996 23.1515 30.4996 20.4994C30.4996 17.8474 29.4461 15.304 27.5708 13.4287C25.6956 11.5535 23.1522 10.5019 20.5001 10.5019ZM20.5011 14.5007C20.5008 14.5011 20.501 14.5017 20.5016 14.5017C21.298 14.4872 22.0895 14.6315 22.8296 14.9261C23.5702 15.2209 24.2446 15.6604 24.8135 16.2187C25.3823 16.7771 25.8342 17.4433 26.1427 18.1782C26.4512 18.9132 26.6102 19.7023 26.6103 20.4994C26.6105 21.2965 26.4518 22.0857 26.1435 22.8208C25.8352 23.5558 25.3836 24.2221 24.8149 24.7807C24.2462 25.3393 23.5719 25.7789 22.8315 26.074C22.091 26.369 21.2991 26.5135 20.5021 26.4991C18.9109 26.4991 17.3849 25.867 16.2597 24.7419C15.1345 23.6167 14.5024 22.0907 14.5024 20.4994C14.5024 18.9082 15.1345 17.3822 16.2597 16.257C17.3845 15.1322 18.91 14.5001 20.5007 14.4997C20.5012 14.4997 20.5015 14.5004 20.5011 14.5007ZM30.9996 7.50014C30.9996 7.50124 30.9987 7.50214 30.9976 7.50218C30.3532 7.52848 29.7438 7.80286 29.2969 8.268C28.8495 8.73362 28.5997 9.35427 28.5997 9.99997C28.5997 10.6457 28.8495 11.2663 29.2969 11.7319C29.7442 12.1976 30.3544 12.472 30.9996 12.4978C31.6626 12.4978 32.2985 12.2345 32.7673 11.7656C33.2361 11.2968 33.4995 10.661 33.4995 9.99797C33.4995 9.33497 33.2361 8.69911 32.7673 8.2303C32.2989 7.76196 31.6639 7.49864 31.0016 7.4981C31.0005 7.4981 30.9996 7.49901 30.9996 7.50014Z" fill="#BA9AE2"/>
</g>
</g>
<defs>
<clipPath id="clip0_3340_22347">
<rect x="0.5" y="0.5" width="40" height="40" rx="20" fill="white"/>
</clipPath>
</defs>
</svg>
