<svg width="42" height="41" viewBox="0 0 42 41" fill="none" xmlns="http://www.w3.org/2000/svg">
<g id="Tiktok" clip-path="url(#clip0_3340_22035)">
<g id="Layer_1-2">
<path id="Vector" d="M20.896 0.5C9.63181 0.5 0.5 9.4545 0.5 20.5C0.5 31.5455 9.63181 40.5 20.896 40.5C32.1603 40.5 41.2921 31.5455 41.2921 20.5C41.2921 9.4545 32.1603 0.5 20.896 0.5ZM30.772 19.5479C28.8322 18.9438 27.0784 18.3973 25.2197 17.8181C25.2197 20.2296 25.272 22.7218 25.2086 25.2107C25.0802 30.2726 20.249 33.5312 15.5845 31.7457C12.508 30.568 10.6632 27.4091 11.2139 24.2627C11.7708 21.0816 14.7108 18.6209 18.0137 18.5894C18.3578 18.5862 18.7023 18.6822 19.1164 18.742V22.0405C18.3755 22.164 17.6548 22.1902 17.0029 22.4122C15.5249 22.9155 14.6655 24.3842 14.8795 25.8601C15.0997 27.378 16.462 28.5884 18.0339 28.6622C19.5382 28.7333 20.9582 27.734 21.3368 26.2589C21.4842 25.6841 21.5171 25.0695 21.5196 24.473C21.5361 20.3091 21.5307 16.1456 21.5319 11.9818C21.5319 11.4418 21.5319 10.9018 21.5319 10.1963C22.6086 10.1963 23.5228 10.1414 24.4233 10.2274C24.7176 10.2556 25.1712 10.6152 25.2206 10.882C25.7745 13.8831 27.758 15.3199 30.772 15.7852V19.5483V19.5479Z" fill="#BA9AE2"/>
</g>
</g>
<defs>
<clipPath id="clip0_3340_22035">
<rect width="40.7921" height="40" fill="white" transform="translate(0.5 0.5)"/>
</clipPath>
</defs>
</svg>
