<svg width="41" height="41" viewBox="0 0 41 41" fill="none" xmlns="http://www.w3.org/2000/svg">
<g id="X 1" clip-path="url(#clip0_3340_2155)">
<g id="Layer_1-2">
<path id="Vector" d="M11.3633 10.5078L26.3102 30.4929H29.695L14.7481 10.5078H11.3633Z" fill="#BA9AE2"/>
<path id="Vector_2" d="M20.5 0.5C9.45436 0.5 0.5 9.45436 0.5 20.5C0.5 31.5456 9.45436 40.5 20.5 40.5C31.5456 40.5 40.5 31.5456 40.5 20.5C40.5 9.45436 31.5456 0.5 20.5 0.5ZM25.5124 32.0871L18.7075 22.9881L10.285 32.0871H8.11972L17.7397 21.6946L8.17997 8.91252H15.5479L21.8151 17.2922L29.5715 8.91252H31.7368L22.7824 18.5861L32.8803 32.0871H25.5124Z" fill="#BA9AE2"/>
</g>
</g>
<defs>
<clipPath id="clip0_3340_2155">
<rect width="40" height="40" fill="white" transform="translate(0.5 0.5)"/>
</clipPath>
</defs>
</svg>
