<svg width="41" height="41" viewBox="0 0 41 41" fill="none" xmlns="http://www.w3.org/2000/svg">
<g id="entypo-social:youtube-with-circle" clip-path="url(#clip0_3340_22115)">
<path id="Vector" d="M23.8396 20.1521L19.1604 17.9688C18.7521 17.7792 18.4167 17.9917 18.4167 18.4437V22.5563C18.4167 23.0083 18.7521 23.2208 19.1604 23.0312L23.8375 20.8479C24.2479 20.6562 24.2479 20.3438 23.8396 20.1521ZM20.5 0.5C9.45417 0.5 0.5 9.45417 0.5 20.5C0.5 31.5458 9.45417 40.5 20.5 40.5C31.5458 40.5 40.5 31.5458 40.5 20.5C40.5 9.45417 31.5458 0.5 20.5 0.5ZM20.5 28.625C10.2625 28.625 10.0833 27.7021 10.0833 20.5C10.0833 13.2979 10.2625 12.375 20.5 12.375C30.7375 12.375 30.9167 13.2979 30.9167 20.5C30.9167 27.7021 30.7375 28.625 20.5 28.625Z" fill="#BA9AE2"/>
</g>
<defs>
<clipPath id="clip0_3340_22115">
<rect width="40" height="40" fill="white" transform="translate(0.5 0.5)"/>
</clipPath>
</defs>
</svg>
