<svg width="72" height="74" viewBox="0 0 72 74" fill="none" xmlns="http://www.w3.org/2000/svg">
<g id="AI Face">
<path id="Vector" d="M3 20V11.5C3 9.24566 3.86919 7.08365 5.41637 5.48959C6.96354 3.89553 9.06196 3 11.25 3H19.5M3 54V62.5C3 64.7543 3.86919 66.9163 5.41637 68.5104C6.96354 70.1045 9.06196 71 11.25 71H19.5M52.5 3H60.75C62.938 3 65.0365 3.89553 66.5836 5.48959C68.1308 7.08365 69 9.24566 69 11.5V20M52.5 71H60.75C62.938 71 65.0365 70.1045 66.5836 68.5104C68.1308 66.9163 69 64.7543 69 62.5V54M23.625 28.5H23.6663M48.375 28.5H48.4163M25.6875 49.75C27.0317 51.1635 28.6362 52.2865 30.407 53.0532C32.1778 53.8198 34.0792 54.2147 36 54.2147C37.9208 54.2147 39.8222 53.8198 41.593 53.0532C43.3638 52.2865 44.9683 51.1635 46.3125 49.75" stroke="#8844DA" stroke-width="6" stroke-linecap="round" stroke-linejoin="round"/>
</g>
</svg>
