<svg width="40" height="41" viewBox="0 0 40 41" fill="none" xmlns="http://www.w3.org/2000/svg">
<g id="Layer_1-2">
<path id="Vector" d="M18.7479 0.5C19.582 0.5 20.4147 0.5 21.2488 0.5C21.375 0.524169 21.5013 0.549681 21.6275 0.569822C22.7047 0.745718 23.8033 0.837023 24.855 1.10691C35.1028 3.73059 41.4462 13.5056 39.7029 23.9399C38.1583 33.1845 30.0165 40.2634 20.6457 40.493C15.8374 40.6111 11.4952 39.2402 7.70766 36.2661C3.673 33.0986 1.18962 28.9697 0.289745 23.9104C0.162151 23.196 0.0882804 22.471 -0.00976562 21.7513C-0.00976562 20.9174 -0.00976562 20.0849 -0.00976562 19.2511C0.0224687 18.9947 0.0560461 18.7395 0.0842511 18.4831C0.554335 14.1595 2.21306 10.3542 5.13026 7.12902C8.22073 3.71582 12.0432 1.59029 16.5896 0.802112C17.3041 0.678582 18.028 0.599361 18.7466 0.5H18.7479ZM20.1555 37.7216C29.854 37.6961 37.4626 29.7015 37.2531 20.14C37.0409 10.4509 29.0387 3.02029 19.4745 3.22975C10.324 3.42982 2.70463 11.3103 2.82954 20.5428C2.96251 30.3272 10.8196 37.7256 20.1555 37.7216Z" fill="#8844DA"/>
<path id="Vector_2" d="M29.5241 27.5196C28.8995 27.396 28.2804 27.2309 27.6505 27.1543C25.6828 26.9167 23.7676 27.1678 21.9114 27.8593C21.8778 27.8714 21.8429 27.8821 21.7852 27.8593C21.9826 27.6807 22.172 27.4927 22.3775 27.3249C23.9959 25.9983 25.8494 25.2947 27.9459 25.245C28.416 25.2342 28.5611 25.0865 28.5611 24.6126C28.5611 21.6787 28.5611 18.7449 28.5611 15.811V15.5371C28.9009 15.6405 29.2125 15.7358 29.5254 15.8298V27.5182L29.5241 27.5196Z" fill="#8844DA"/>
<path id="Vector_3" d="M19.5309 27.9972C18.627 26.9244 17.5485 26.0731 16.2981 25.4461C15.0463 24.8203 13.718 24.4739 12.3145 24.392V12.9883C12.6731 13.0366 13.0102 13.0662 13.3406 13.1306C15.9126 13.6261 17.9635 14.9393 19.4893 17.0688C19.539 17.1386 19.5712 17.238 19.5712 17.3226C19.5752 20.8271 19.5752 24.3303 19.5752 27.8348C19.5752 27.8818 19.5752 27.9301 19.5752 27.9771C19.5605 27.9838 19.547 27.9905 19.5323 27.9972H19.5309Z" fill="#8844DA"/>
<path id="Vector_4" d="M27.6875 24.3879C24.7824 24.6014 22.3796 25.7991 20.455 28.0119C20.4469 27.9474 20.4375 27.9045 20.4375 27.8615C20.4375 24.3436 20.4375 20.8256 20.4402 17.309C20.4402 17.2298 20.4697 17.1372 20.5167 17.0727C22.0318 14.9297 24.0867 13.6219 26.6614 13.1291C26.9958 13.0647 27.3356 13.0378 27.6889 12.9922V24.3879H27.6875Z" fill="#8844DA"/>
<path id="Vector_5" d="M11.4235 15.5254V15.7778C11.4235 18.7184 11.4235 21.6589 11.4235 24.5995C11.4235 25.0842 11.547 25.2198 12.0372 25.2319C13.7739 25.2749 15.3722 25.7623 16.816 26.725C17.3089 27.054 17.7602 27.4447 18.2128 27.8422C15.6609 26.9305 13.0849 26.8069 10.4591 27.4998C10.4591 27.4165 10.4591 27.3561 10.4591 27.2943C10.4591 23.5347 10.4591 19.7751 10.4551 16.0168C10.4551 15.8597 10.4967 15.7886 10.6512 15.751C10.9023 15.6919 11.1481 15.6073 11.4221 15.5254H11.4235Z" fill="#8844DA"/>
</g>
</svg>
