<svg width="80" height="58" viewBox="0 0 80 58" fill="none" xmlns="http://www.w3.org/2000/svg">
<g id="Layer_1-2">
<path id="Vector" d="M40.0235 0.630859H40.0015C18.245 0.630859 8.30328 9.4695 8.25977 28.8566C8.30328 48.2438 18.2454 57.0824 40.0015 57.0824H40.0235C61.7799 57.0824 71.7217 48.2438 71.7652 28.8566C71.7221 9.4695 61.7799 0.630859 40.0235 0.630859ZM63.7446 28.007C63.7446 27.9873 63.7446 27.9677 63.7446 27.9475C63.7121 36.9407 56.2816 41.0405 40.0212 41.0405H40.0047C23.7442 41.0405 16.3137 36.9407 16.2812 27.9475C16.2812 27.9672 16.2812 27.9869 16.2812 28.007V27.8886C16.2812 27.9082 16.2812 27.9279 16.2812 27.948C16.3137 18.9549 23.7442 14.855 40.0047 14.855H40.0212C56.2816 14.855 63.7121 18.9549 63.7446 27.948C63.7446 27.9284 63.7446 27.9087 63.7446 27.8886V28.007Z" fill="#8844DA"/>
<path id="Vector_2" d="M7.63889 17.3943C3.55649 17.6722 0.250527 21.0042 0.0141583 25.0798C-0.261147 29.825 3.51434 33.7594 8.21057 33.7594C8.47214 33.7594 8.73095 33.7466 8.9861 33.7228C10.4584 31.2254 11.1757 28.0173 11.1849 24.0541C11.1794 21.6491 10.9128 19.5224 10.3755 17.6635C9.51152 17.4286 8.59124 17.3299 7.63889 17.3943Z" fill="#8844DA"/>
<path id="Vector_3" d="M8.19125 6.30786C8.19125 4.85121 6.98742 3.67519 5.51881 3.71587C4.14778 3.7538 3.01129 4.90651 2.99434 6.27495C2.97968 7.47428 3.78086 8.48804 4.87888 8.80021V20.3867H6.30625V8.80021C7.39419 8.49078 8.19125 7.4921 8.19125 6.3074V6.30786Z" fill="#8844DA"/>
<path id="Vector_4" d="M72.3614 17.3943C76.4438 17.6717 79.7498 21.0037 79.9862 25.0798C80.2615 29.825 76.486 33.7594 71.7897 33.7594C71.5282 33.7594 71.2694 33.7466 71.0142 33.7228C69.5419 31.2254 68.8246 28.0173 68.8154 24.0541C68.8209 21.6491 69.0875 19.5224 69.6249 17.6635C70.4888 17.4286 71.4091 17.3299 72.3614 17.3943Z" fill="#8844DA"/>
<path id="Vector_5" d="M71.8086 6.30786C71.8086 4.85121 73.0124 3.67519 74.481 3.71587C75.8521 3.7538 76.9886 4.90651 77.0055 6.27495C77.0202 7.47428 76.219 8.48804 75.121 8.80021V20.3867H73.6936V8.80021C72.6057 8.49078 71.8086 7.4921 71.8086 6.3074V6.30786Z" fill="#8844DA"/>
<path id="Vector_6" d="M30.454 23.6092C32.5309 23.2582 34.4618 23.7098 35.5474 24.6655C35.7906 24.8799 36.1713 24.6701 36.1177 24.3506C36.1173 24.3469 36.1163 24.3428 36.1159 24.3392C35.612 21.3728 32.7939 19.3755 29.821 19.8782C26.848 20.381 24.8462 23.1928 25.3501 26.1592C25.3506 26.1628 25.3515 26.1669 25.3519 26.1706C25.4069 26.4896 25.8352 26.5628 25.9942 26.2803C26.7037 25.0211 28.3775 23.9603 30.4545 23.6088L30.454 23.6092Z" fill="#8844DA"/>
<path id="Vector_7" d="M49.6804 23.609C51.7633 23.9244 53.455 24.9559 54.1861 26.2028C54.3501 26.4821 54.777 26.4016 54.8265 26.0817C54.827 26.078 54.8279 26.0739 54.8283 26.0703C55.2805 23.0957 53.2306 20.3186 50.2494 19.867C47.2682 19.4159 44.4849 21.4613 44.0323 24.4358C44.0319 24.4395 44.0309 24.4436 44.0305 24.4472C43.9824 24.7672 44.3667 24.9706 44.6063 24.7521C45.6754 23.7776 47.5976 23.2927 49.6804 23.6081V23.609Z" fill="#8844DA"/>
<path id="Vector_8" d="M35.6396 30.6816C35.6396 34.2357 37.1728 36.2157 39.9241 36.2157C42.6753 36.2157 44.2085 34.2357 44.2085 30.6816" fill="#8844DA"/>
</g>
</svg>
