<svg width="40" height="41" viewBox="0 0 40 41" fill="none" xmlns="http://www.w3.org/2000/svg">
<g id="Layer_1-2">
<path id="Vector" d="M10.2347 40.4366H8.59467C8.552 40.41 8.51333 40.3753 8.468 40.358C7.14133 39.8393 6.44133 38.8726 6.39333 37.4446C6.36267 36.5473 6.32667 35.65 6.31733 34.7513C6.31467 34.4513 6.20533 34.25 5.99067 34.0486C2.916 31.15 1.024 27.6113 0.305333 23.45C0.177333 22.71 0.101333 21.9606 0 21.2166C0 20.3833 0 19.55 0 18.7166C0.0493333 18.3193 0.1 17.922 0.148 17.526C0.592 13.8433 1.93467 10.53 4.30533 7.6713C7.85467 3.38863 12.492 1.14197 17.972 0.609967C21.9253 0.225967 25.7453 0.8353 29.308 2.63263C35.028 5.51797 38.4933 10.1393 39.688 16.442C39.8307 17.1926 39.8973 17.958 40 18.7153V21.2153C39.976 21.342 39.948 21.4673 39.9293 21.5953C39.8067 22.4433 39.7493 23.3073 39.556 24.1393C37.9107 31.2313 33.5947 35.9553 26.748 38.3233C22.792 39.6913 18.7427 39.7526 14.6773 38.758C14.488 38.7113 14.252 38.6833 14.084 38.7553C12.7947 39.302 11.516 39.874 10.2347 40.4393V40.4366ZM9.45467 37.3446C9.65733 37.2673 9.75467 37.2353 9.848 37.194C10.836 36.7606 11.8307 36.342 12.8067 35.8846C13.6107 35.5086 14.4147 35.4446 15.272 35.6726C18.0867 36.4206 20.9293 36.4913 23.776 35.898C27.956 35.026 31.396 32.946 33.892 29.4486C36.3853 25.954 37.2613 22.026 36.7227 17.79C36.128 13.1126 33.9147 9.35397 30.028 6.6753C25.7773 3.74597 21.0493 3.03797 16.0507 4.0633C12.3227 4.82863 9.18 6.66063 6.75867 9.6193C3.98 13.014 2.86933 16.946 3.19067 21.2966C3.47733 25.1806 4.896 28.6086 7.71067 31.306C9.01067 32.5526 9.58933 33.886 9.46267 35.6206C9.42267 36.1726 9.456 36.7313 9.456 37.3433L9.45467 37.3446Z" fill="#8844DA"/>
<path id="Vector_2" d="M23.4033 25.7479C22.65 25.7386 22.058 25.5053 21.5273 25.0906C20.194 24.0493 18.8566 23.0119 17.5206 21.9746C16.8953 21.4893 16.4646 21.4893 15.834 21.9746C14.0286 23.3639 12.226 24.7559 10.4206 26.1453C10.2966 26.2399 10.1753 26.3413 10.0393 26.4159C9.69929 26.6039 9.31662 26.5439 9.03129 26.2746C8.74729 26.0053 8.66862 25.6293 8.84729 25.2759C8.94595 25.0786 9.07396 24.8973 9.19262 24.7093C10.8646 22.0573 12.538 19.4039 14.2113 16.7533C15.2433 15.1186 16.9873 14.8026 18.53 15.9719C19.8473 16.9693 21.1633 17.9706 22.4793 18.9706C23.1113 19.4506 23.5286 19.4573 24.1686 18.9733C25.9753 17.6079 27.7793 16.2386 29.5846 14.8719C29.6673 14.8093 29.7486 14.7426 29.8353 14.6853C30.238 14.4159 30.65 14.4413 30.9753 14.7546C31.2886 15.0573 31.346 15.4466 31.0926 15.8573C30.45 16.8973 29.7926 17.9293 29.1406 18.9639C28.01 20.7586 26.8753 22.5506 25.7486 24.3466C25.186 25.2439 24.3793 25.7066 23.402 25.7479H23.4033Z" fill="#8844DA"/>
</g>
</svg>
