<svg width="62" height="62" viewBox="0 0 62 62" fill="none" xmlns="http://www.w3.org/2000/svg">
<g id="Prompt 1" clip-path="url(#clip0_3208_22940)">
<g id="Layer_1-2">
<path id="Vector" d="M31.1351 61.4746C14.2693 61.4899 0.541643 47.8385 0.52638 31.0307C0.511117 14.1619 14.1594 0.437226 30.9703 0.421963C47.8361 0.4067 61.5638 14.0581 61.579 30.8659C61.5943 47.7317 47.9429 61.4593 31.1351 61.4746ZM15.8079 26.4426C13.0483 26.4701 11.2625 28.0941 11.2808 30.93C11.2991 33.7079 12.972 35.2586 15.8445 35.5486C18.4667 35.1762 20.3441 33.8361 20.2983 30.9696C20.2555 28.2101 18.6468 26.4151 15.8079 26.4426ZM30.9947 26.351C28.3694 26.7204 26.4982 28.0635 26.5409 30.93C26.5806 33.6926 28.1954 35.4845 31.0313 35.457C33.7909 35.4295 35.5797 33.8086 35.5584 30.9696C35.5401 28.1948 33.8733 26.638 30.9947 26.351ZM46.3586 26.4395C43.596 26.467 41.7949 28.0697 41.8071 30.9055C41.8193 33.6651 43.4311 35.4631 46.2701 35.4601C49.048 35.457 50.6109 33.7964 50.9131 30.9147C50.5529 28.2986 49.2281 26.4121 46.3586 26.4426V26.4395Z" fill="#8844DA"/>
</g>
</g>
<defs>
<clipPath id="clip0_3208_22940">
<rect width="61.0526" height="61.0526" fill="white" transform="matrix(1 0 0 -1 0.526367 61.4746)"/>
</clipPath>
</defs>
</svg>
