<svg width="40" height="41" viewBox="0 0 40 41" fill="none" xmlns="http://www.w3.org/2000/svg">
<g id="Layer_1-2">
<path id="Vector" d="M16.4001 28.6964C16.2773 28.6043 16.1425 28.5243 16.0318 28.4189C15.6608 28.0667 15.2978 27.7051 14.9201 27.3356C14.6532 27.5971 14.397 27.8492 14.1394 28.1014C13.8138 28.4189 13.5549 28.4189 13.2306 28.1014C12.8289 27.7091 12.4285 27.3169 12.0268 26.9247C11.7239 26.6285 11.7239 26.367 12.0282 26.0695C14.066 24.079 16.1025 22.0871 18.1457 20.0992C18.2538 19.9938 18.2645 19.9218 18.1951 19.7897C17.0447 17.5764 17.6999 14.8401 19.7311 13.3525C21.5434 12.0251 23.9803 11.9437 25.8566 13.1817C27.1685 14.0476 27.9438 15.267 28.1534 16.8053C28.467 19.108 27.1778 21.3293 24.9798 22.2298C23.4865 22.8422 21.9931 22.7902 20.5345 22.0871C20.401 22.0231 20.3343 22.0391 20.2342 22.1378C19.208 23.1491 18.1764 24.155 17.1461 25.1623C17.1074 25.1996 17.0634 25.2316 17.0113 25.273C17.0594 25.325 17.0927 25.3637 17.1301 25.3997C17.4771 25.74 17.8241 26.0788 18.171 26.419C18.482 26.7245 18.4847 26.9847 18.1764 27.2862C17.7907 27.6638 17.4077 28.044 17.0167 28.4149C16.9019 28.523 16.7591 28.6043 16.6297 28.6977H16.4001V28.6964ZM22.9193 20.0365C24.3713 20.0299 25.5403 18.8812 25.535 17.4683C25.5297 16.0541 24.3433 14.8988 22.906 14.9081C21.4527 14.9175 20.2876 16.0635 20.2916 17.479C20.2956 18.8945 21.4753 20.0445 22.918 20.0379L22.9193 20.0365Z" fill="#8844DA"/>
<path id="Vector_2" d="M18.7569 0.5C19.591 0.5 20.4237 0.5 21.2578 0.5C21.3846 0.524014 21.51 0.549363 21.6368 0.570709C22.7138 0.745481 23.8121 0.837536 24.865 1.10836C35.1129 3.73261 41.456 13.5065 39.7131 23.9407C38.169 33.1849 30.0257 40.2639 20.6559 40.4933C15.8476 40.6107 11.505 39.2406 7.71761 36.2668C3.68332 33.0996 1.19975 28.9704 0.298936 23.9114C0.172155 23.1963 0.0987555 22.4718 0 21.7528C0 20.9189 0 20.0864 0 19.2526C0.0320288 18.9964 0.0667267 18.7403 0.0947519 18.4841C0.565843 14.1615 2.22333 10.3566 5.14196 7.13064C8.22874 3.71526 12.0508 1.58999 16.5989 0.801514C17.3142 0.67744 18.0376 0.598726 18.7569 0.5ZM20.1635 37.7223C29.8615 37.697 37.4711 29.7015 37.2615 20.1411C37.0493 10.4526 29.0461 3.02151 19.4829 3.23097C10.332 3.43109 2.71177 11.3105 2.83855 20.544C2.97201 30.3286 10.8284 37.7277 20.1648 37.7223H20.1635Z" fill="#8844DA"/>
</g>
</svg>
