<svg width="114" height="28" viewBox="0 0 114 28" fill="none" xmlns="http://www.w3.org/2000/svg">
<g clip-path="url(#clip0_2040_20357)">
<path d="M81.2982 10.9052C79.6201 10.9052 78.4222 11.4775 77.8344 12.5608L77.5183 13.1475V11.1877H74.7877V23.101H77.6601V16.0132C77.6601 14.3199 78.5823 13.3486 80.1885 13.3486C81.7203 13.3486 82.5987 14.2943 82.5987 15.9428V23.1008H85.4725V15.4315C85.4725 12.595 83.9121 10.9052 81.2982 10.9052ZM67.3681 10.9052C63.9785 10.9052 61.8793 13.0163 61.8793 16.4139V18.0866C61.8793 21.3539 64.0029 23.3832 67.4217 23.3832C69.7086 23.3832 71.3114 22.547 72.3201 20.8268L70.5393 19.8041C69.7941 20.7963 68.6036 21.411 67.4229 21.411C65.6922 21.411 64.6591 20.3448 64.6591 18.5577V18.0841H72.6763V16.1083C72.6763 12.9432 70.5941 10.9052 67.3705 10.9052H67.3681ZM70.0621 16.1581H64.6493V15.8721C64.6493 13.911 65.614 12.8288 67.3656 12.8288C69.0524 12.8288 70.0599 13.895 70.0599 15.6821L70.0621 16.1581ZM113.999 9.22657V6.94768H104.063V9.22657H107.546V20.817H104.063V23.0959H113.999V20.817H110.514V9.22657H113.999ZM38.6622 6.61901C34.2248 6.61901 31.4662 9.37879 31.4662 13.8235V16.2263C31.4662 20.6697 34.2237 23.4308 38.6622 23.4308C43.1007 23.4308 45.8585 20.6697 45.8585 16.2263V13.8232C45.8574 9.3739 43.0959 6.61901 38.6622 6.61901ZM42.8897 16.3908C42.8897 19.3417 41.3492 21.0337 38.6622 21.0337C35.9753 21.0337 34.4359 19.3417 34.4359 16.3908V13.6577C34.4359 10.7068 35.9777 9.01479 38.6636 9.01479C41.3492 9.01479 42.891 10.7068 42.891 13.6577L42.8897 16.3908ZM54.8807 10.9052C53.3732 10.9052 52.068 11.5286 51.3874 12.5719L51.0788 13.0466V11.1877H48.3468V27.1999H51.2204V21.3999L51.5276 21.8552C52.1742 22.8121 53.4366 23.383 54.9052 23.383C57.3822 23.383 59.8815 21.7675 59.8815 18.1568V16.1312C59.8815 13.5297 58.3409 10.9052 54.8807 10.9052ZM57.0079 18.017C57.0079 19.937 55.8858 21.1299 54.0805 21.1299C52.3973 21.1299 51.2228 19.8688 51.2228 18.0646V16.2726C51.2228 14.4466 52.4071 13.161 54.105 13.161C55.8967 13.161 57.0102 14.3528 57.0102 16.2726L57.0079 18.017ZM93.4124 6.94879L87.6152 23.1008H90.534L91.6439 19.6386H98.3082L98.3194 19.6728L99.417 23.1008H102.335L96.5275 6.94746L93.4124 6.94879ZM92.3561 17.361L94.9712 9.19479L97.5595 17.361H92.3561ZM25.848 11.4579C26.1625 10.5156 26.2717 9.51718 26.1682 8.5294C26.0647 7.54161 25.751 6.58729 25.248 5.73035C24.5013 4.43514 23.3621 3.40978 21.9944 2.80184C20.6267 2.1939 19.101 2.03473 17.6369 2.34723C16.9766 1.60401 16.1648 1.01014 15.2559 0.605357C14.347 0.200576 13.362 -0.00577192 12.3668 0.000122826C10.8693 -0.00322665 9.40949 0.468239 8.19786 1.34652C6.98623 2.2248 6.08542 3.46449 5.62536 4.88679C4.65051 5.08633 3.72957 5.49132 2.92416 6.07468C2.11874 6.65803 1.4474 7.40631 0.955048 8.26946C0.204419 9.5625 -0.115801 11.0599 0.0404787 12.5461C0.196759 14.0324 0.821479 15.4308 1.82472 16.5401C1.5114 17.4816 1.40285 18.4789 1.50632 19.4656C1.60979 20.4523 1.9229 21.4056 2.42476 22.2619C3.17076 23.5595 4.31044 24.5871 5.67942 25.1964C7.0484 25.8057 8.57591 25.9653 10.0416 25.6521C10.7014 26.3945 11.5123 26.9879 12.4201 27.3926C13.3279 27.7974 14.3117 28.0042 15.306 27.9992C16.8034 28.0026 18.2633 27.5312 19.4749 26.6529C20.6866 25.7746 21.5874 24.5349 22.0474 23.1126C23.022 22.9129 23.9428 22.5078 24.7479 21.9244C25.5531 21.341 26.2242 20.5928 26.7164 19.7297C27.4689 18.4371 27.7904 16.9392 27.6343 15.4523C27.4782 13.9654 26.8527 12.5668 25.848 11.4579ZM15.306 26.1735C14.0763 26.1745 12.8854 25.7435 11.9422 24.9561C11.9836 24.933 12.0642 24.8928 12.1105 24.8623L17.6968 21.6437C17.837 21.5642 17.9534 21.4489 18.034 21.3095C18.1146 21.1702 18.1566 21.0119 18.1555 20.851V12.9895L20.5155 14.3492C20.5283 14.3553 20.5393 14.3645 20.5474 14.376C20.5555 14.3876 20.5605 14.401 20.5619 14.415V20.9217C20.5619 23.8197 18.2098 26.1701 15.306 26.1735ZM4.0127 21.3599C3.39698 20.2977 3.17474 19.0533 3.38483 17.8441C3.42602 17.8697 3.49927 17.9135 3.55048 17.9426L9.13812 21.1626C9.27724 21.2439 9.43555 21.2868 9.59678 21.2868C9.758 21.2868 9.91632 21.2439 10.0554 21.1626L16.8719 17.2283V19.9479C16.8731 19.9619 16.8707 19.9759 16.865 19.9887C16.8592 20.0014 16.8502 20.0125 16.8389 20.0208L11.1921 23.2737C8.6779 24.7186 5.46639 23.8597 4.0127 21.3537V21.3599ZM2.54922 9.18612C3.16211 8.12232 4.1306 7.30776 5.28493 6.88523V13.5126C5.28408 13.6734 5.32611 13.8316 5.40671 13.9709C5.48731 14.1102 5.60357 14.2256 5.74359 14.3052L12.5618 18.2348L10.193 19.5995C10.1815 19.6072 10.1682 19.6119 10.1543 19.6132C10.1405 19.6145 10.1265 19.6123 10.1138 19.6068L4.4678 16.353C1.95586 14.9026 1.0951 11.6959 2.5441 9.18635L2.54922 9.18612ZM21.9425 13.6906L15.1241 9.76079L17.4819 8.39968C17.4935 8.39206 17.5068 8.38741 17.5205 8.38613C17.5343 8.38485 17.5482 8.38698 17.561 8.39235L23.2072 11.6463C24.072 12.145 24.7766 12.8793 25.2385 13.7631C25.7003 14.647 25.9004 15.6439 25.8151 16.6372C25.7299 17.6304 25.3629 18.5788 24.7571 19.3714C24.1514 20.164 23.3319 20.768 22.3947 21.1126V14.4868C22.3966 14.3256 22.3553 14.1668 22.2751 14.0268C22.1949 13.8868 22.0787 13.7707 21.9385 13.6906H21.9425ZM24.2928 10.1601C24.238 10.1264 24.1827 10.0935 24.1269 10.0615L18.5395 6.84168C18.4004 6.76035 18.2421 6.71748 18.0809 6.71748C17.9196 6.71748 17.7613 6.76035 17.6222 6.84168L10.804 10.7701V8.05168C10.8035 8.03769 10.8064 8.0238 10.8124 8.01114C10.8183 7.99847 10.8272 7.98739 10.8383 7.97879L16.4842 4.7259C17.3493 4.22811 18.3386 3.98655 19.3362 4.02948C20.3339 4.07241 21.2986 4.39806 22.1176 4.96831C22.9366 5.53857 23.5758 6.32984 23.9606 7.24953C24.3454 8.16921 24.4598 9.17926 24.2904 10.1615L24.2928 10.1601ZM9.51729 15.0101L7.15608 13.6503C7.14396 13.6437 7.13357 13.6343 7.12572 13.6229C7.11788 13.6115 7.1128 13.5985 7.11088 13.5848V7.07768C7.11008 6.08038 7.39414 5.10351 7.92977 4.2616C8.4654 3.41969 9.23039 2.74762 10.1351 2.32419C11.0398 1.90075 12.0466 1.74349 13.0377 1.87084C14.0287 1.9982 14.9629 2.40488 15.7306 3.04323C15.6892 3.06657 15.6148 3.10657 15.5622 3.13701L9.97595 6.35568C9.83593 6.43533 9.71967 6.55072 9.63907 6.69002C9.55847 6.82931 9.51644 6.98749 9.51729 7.14834V15.0101ZM10.7993 12.2506L13.8363 10.4999L16.8721 12.2506V15.7492L13.8351 17.4997L10.7982 15.7492L10.7993 12.2506Z" fill="#7BDCDE"/>
</g>
<defs>
<clipPath id="clip0_2040_20357">
<rect width="114" height="28" fill="white"/>
</clipPath>
</defs>
</svg>
