<svg width="64" height="64" viewBox="0 0 64 64" fill="none" xmlns="http://www.w3.org/2000/svg">
<g id="Layer_1-2">
<path id="Vector" d="M63.5788 31.9302C63.4735 49.3027 49.8105 62.953 32.9644 63.4456C15.0236 63.972 0.539539 49.6942 0.421646 32.1492C0.303753 14.8357 14.1436 0.583228 31.655 0.42323C49.3432 0.263232 63.4862 14.2925 63.5788 31.9302ZM54.6357 47.2101C61.7978 37.1091 61.3388 21.1388 49.84 11.2063C38.5391 1.44217 21.293 2.65478 11.4363 13.9262C1.84479 24.8945 3.58792 39.4291 9.42786 47.1722C21.8361 34.5576 42.2948 34.6334 54.6357 47.2101Z" fill="#8844DA"/>
<path id="Vector_2" d="M44.6486 21.4627C44.6486 28.3637 38.9602 34.0394 32.0424 34.031C25.0825 34.0226 19.39 28.389 19.3857 21.5133C19.3857 14.427 25.0152 8.81445 32.1224 8.81445C39.0066 8.81445 44.6444 14.5154 44.6486 21.4627Z" fill="#8844DA"/>
</g>
</svg>
