<svg width="25" height="24" viewBox="0 0 25 24" fill="none" xmlns="http://www.w3.org/2000/svg">
<g id="Frame" clip-path="url(#clip0_3306_22129)">
<path id="Vector" d="M8.74325 7.33992L2.36325 8.26492L2.25025 8.28792C2.07919 8.33333 1.92325 8.42333 1.79835 8.54872C1.67344 8.67412 1.58406 8.83041 1.53932 9.00165C1.49458 9.17289 1.49608 9.35293 1.54368 9.5234C1.59128 9.69386 1.68327 9.84864 1.81025 9.97192L6.43225 14.4709L5.34225 20.8259L5.32925 20.9359C5.31878 21.1128 5.35552 21.2894 5.4357 21.4474C5.51589 21.6055 5.63664 21.7394 5.78559 21.8354C5.93454 21.9315 6.10634 21.9862 6.2834 21.994C6.46046 22.0018 6.63642 21.9625 6.79325 21.8799L12.4993 18.8799L18.1923 21.8799L18.2923 21.9259C18.4573 21.9909 18.6367 22.0109 18.812 21.9837C18.9873 21.9565 19.1522 21.8832 19.2898 21.7712C19.4275 21.6592 19.5328 21.5127 19.5951 21.3466C19.6574 21.1804 19.6743 21.0008 19.6443 20.8259L18.5533 14.4709L23.1773 9.97092L23.2553 9.88592C23.3667 9.74869 23.4397 9.58438 23.467 9.40972C23.4942 9.23506 23.4747 9.0563 23.4103 8.89165C23.346 8.72701 23.2392 8.58235 23.1007 8.47244C22.9623 8.36252 22.7972 8.29126 22.6223 8.26592L16.2423 7.33992L13.3903 1.55992C13.3077 1.39246 13.18 1.25144 13.0214 1.15283C12.8629 1.05422 12.6799 1.00195 12.4933 1.00195C12.3066 1.00195 12.1236 1.05422 11.9651 1.15283C11.8065 1.25144 11.6788 1.39246 11.5963 1.55992L8.74325 7.33992Z" fill="#F0A143"/>
</g>
<defs>
<clipPath id="clip0_3306_22129">
<rect width="24" height="24" fill="white" transform="translate(0.5)"/>
</clipPath>
</defs>
</svg>
