<svg width="40" height="41" viewBox="0 0 40 41" fill="none" xmlns="http://www.w3.org/2000/svg">
<g id="Layer_1-2">
<path id="Vector" d="M18.7556 0.5C19.5897 0.5 20.4225 0.5 21.2566 0.5C21.3835 0.522938 21.509 0.549924 21.6359 0.570164C22.7129 0.745573 23.8116 0.837325 24.8644 1.10719C35.1114 3.73157 41.455 13.5059 39.7125 23.94C38.1684 33.1841 30.0256 40.2625 20.656 40.4919C15.8483 40.6093 11.5063 39.2384 7.71764 36.2659C3.68336 33.0991 1.19989 28.9702 0.299636 23.9104C0.172763 23.1952 0.0985288 22.4707 0 21.7515C0 20.9176 0 20.0851 0 19.2512C0.0310433 18.9949 0.0661358 18.7398 0.0944797 18.4835C0.565528 14.1603 2.22297 10.3553 5.14105 7.13046C8.22783 3.71538 12.0502 1.59023 16.5974 0.802243C17.3127 0.678108 18.0362 0.599848 18.7556 0.5ZM20.1633 37.7218C29.861 37.6975 37.4706 29.7015 37.2614 20.1404C37.0482 10.4524 29.0471 3.02184 19.4831 3.22963C10.332 3.42933 2.71292 11.3092 2.83844 20.5425C2.97206 30.3276 10.8287 37.7258 20.1647 37.7218H20.1633Z" fill="#8844DA"/>
<path id="Vector_2" d="M13.6946 18.6865C13.9753 18.6865 14.2425 18.6838 14.5098 18.6865C15.105 18.6933 15.4762 19.0589 15.4762 19.6526C15.4789 21.4175 15.4789 23.1837 15.4762 24.9486C15.4762 25.5572 15.105 25.9188 14.4949 25.9201C13.7459 25.9201 12.9981 25.9242 12.249 25.9201C11.0734 25.9134 10.1367 25.0957 10.0773 23.9259C10.022 22.8275 10.0288 21.7225 10.0841 20.6241C10.1313 19.6891 10.8129 18.9766 11.7267 18.7553C11.7672 18.7459 11.8063 18.7297 11.8536 18.7149C11.9076 16.1903 12.8591 14.0773 14.7946 12.4447C16.309 11.1682 18.0811 10.5395 20.0611 10.557C24.8 10.5961 28.2458 14.5509 28.1513 18.7203C28.2228 18.7392 28.2984 18.7567 28.3713 18.7783C29.2162 19.0171 29.8735 19.7282 29.9127 20.5985C29.964 21.7252 29.9694 22.8586 29.9154 23.9852C29.8695 24.9513 29.1204 25.7056 28.1689 25.8743C28.0501 25.8945 28.0042 25.9417 27.9704 26.0483C27.4535 27.6567 26.1092 28.6349 24.4221 28.6363C23.8012 28.6363 23.1803 28.6363 22.6067 28.6363C22.3934 28.9574 22.2301 29.2758 22.0007 29.5363C21.203 30.4443 19.9113 30.6967 18.8329 30.1839C17.7626 29.6752 17.1269 28.504 17.3023 27.3666C17.4927 26.1347 18.4213 25.209 19.6346 25.0444C20.8224 24.8825 21.9858 25.5369 22.4663 26.6474C22.5271 26.7891 22.6013 26.8309 22.7484 26.8296C23.3841 26.8201 24.0198 26.8417 24.6542 26.8147C25.2656 26.7877 25.7232 26.472 26.0822 25.9255C25.8541 25.9255 25.6678 25.9255 25.4802 25.9255C24.908 25.9215 24.5273 25.5585 24.526 24.9918C24.5219 23.2053 24.5219 21.4189 24.526 19.6324C24.526 19.0751 24.8972 18.7054 25.4532 18.6919C25.734 18.6852 26.0147 18.6919 26.3333 18.6919C26.2644 16.5196 25.4154 14.7587 23.6419 13.539C21.4446 12.0264 19.115 11.9414 16.7949 13.2516C14.4828 14.559 13.6244 16.9675 13.6932 18.6919L13.6946 18.6865ZM13.6662 20.4973C13.2073 20.4973 12.7633 20.4973 12.3206 20.4973C11.9804 20.4973 11.8657 20.6133 11.8657 20.9561C11.8657 21.7818 11.8657 22.6062 11.8657 23.432C11.8657 24.0837 11.8914 24.1094 12.5433 24.1094H13.6662V20.4973ZM26.336 24.104C26.8475 24.104 27.3401 24.1121 27.8328 24.0999C28.0204 24.0959 28.1324 23.9596 28.1338 23.7774C28.1405 22.7965 28.1392 21.8169 28.1338 20.836C28.1338 20.6511 28.019 20.5121 27.8382 20.5054C27.3401 20.4892 26.8421 20.5 26.336 20.5V24.1026V24.104ZM19.1029 27.7228C19.1002 28.2234 19.4956 28.6268 19.995 28.6322C20.4917 28.6376 20.8993 28.2342 20.8993 27.7363C20.8993 27.2316 20.5066 26.8309 20.0072 26.8255C19.5118 26.8201 19.1042 27.2236 19.1029 27.7241V27.7228Z" fill="#8844DA"/>
</g>
</svg>
