<svg width="40" height="41" viewBox="0 0 40 41" fill="none" xmlns="http://www.w3.org/2000/svg">
<g id="Layer_1-2">
<path id="Vector" d="M18.7564 0.5C19.5897 0.5 20.4231 0.5 21.2578 0.5C21.3844 0.523993 21.5098 0.549318 21.6365 0.570645C22.7138 0.746591 23.8112 0.838563 24.8645 1.10781C35.1127 3.73234 41.4555 13.5067 39.7128 23.9408C38.1688 33.1846 30.026 40.2638 20.6551 40.4931C15.847 40.6104 11.5042 39.2401 7.71749 36.2664C3.68274 33.0993 1.20003 28.9699 0.298673 23.9102C0.172004 23.1957 0.0973354 22.4706 0 21.7508C0 20.9177 0 20.0847 0 19.2502C0.0320007 18.9943 0.0666681 18.7384 0.0946686 18.4825C0.565345 14.1598 2.22405 10.3543 5.14144 7.12863C8.2295 3.71635 12.0523 1.59033 16.599 0.801241C17.3137 0.677279 18.0377 0.598636 18.7564 0.5ZM20.1631 37.7219C29.862 37.6966 37.4715 29.7017 37.2608 20.1406C37.0474 10.4516 29.0459 3.02189 19.4817 3.22983C10.3309 3.42977 2.71072 11.31 2.83606 20.5432C2.9694 30.3282 10.8256 37.7259 20.1618 37.7219H20.1631Z" fill="#8844DA"/>
<path id="Vector_2" d="M31.9198 22.1831C31.7905 22.495 31.5505 22.6989 31.2865 22.8975C30.3318 23.6187 29.3891 24.3531 28.4397 25.0809C27.7851 25.5834 27.1144 25.4967 26.6117 24.8449C25.853 23.8612 25.0997 22.8736 24.337 21.8925C24.089 21.5726 24.0263 21.2167 24.109 20.8382C24.2023 20.4063 24.4396 20.0824 24.8957 19.9811C25.385 19.8731 25.8303 19.9718 26.165 20.3623C26.457 20.7022 26.7224 21.0661 27.0597 21.4167C27.089 21.1594 27.1357 20.9022 27.1437 20.6449C27.2504 17.198 24.6597 14.0483 21.2516 13.4644C19.2955 13.1285 17.5088 13.5791 15.8448 14.6054C15.4035 14.8773 14.9421 14.9093 14.5794 14.6534C14.1634 14.3602 13.9608 13.823 14.0928 13.3391C14.1888 12.9833 14.3768 12.698 14.7074 12.4994C16.6208 11.3531 18.6822 10.7519 20.9129 11.0172C24.6757 11.4664 27.3157 13.4844 28.8344 16.9487C29.3424 18.107 29.5358 19.34 29.5371 20.6036C29.5371 20.8262 29.5371 21.0488 29.5371 21.2714L29.5998 21.314C29.6718 21.2287 29.7384 21.1368 29.8184 21.0581C30.5224 20.3517 31.5545 20.5889 31.8705 21.5273C31.8825 21.562 31.9038 21.5926 31.9211 21.6246V22.1844L31.9198 22.1831Z" fill="#8844DA"/>
<path id="Vector_3" d="M10.3669 19.7037C10.2855 19.7984 10.2029 19.889 10.1255 19.9863C9.69084 20.5275 8.75082 20.4315 8.33881 19.9636C7.92147 19.4891 8.02814 18.6321 8.56148 18.2162C9.30283 17.6404 10.0508 17.0699 10.7949 16.4967C11.0589 16.2928 11.3215 16.0875 11.5882 15.8862C12.1696 15.449 12.8509 15.5197 13.3003 16.0928C14.1003 17.1125 14.8896 18.1415 15.6723 19.1746C16.0056 19.6144 15.9576 20.3195 15.5896 20.7287C15.175 21.1913 14.2789 21.1713 13.8323 20.6701C13.5643 20.3689 13.3296 20.0396 13.0789 19.7224C13.0456 19.6797 13.0109 19.6397 12.9349 19.5464C12.9016 19.7317 12.8629 19.8677 12.8522 20.005C12.7242 21.7911 13.1949 23.4133 14.2949 24.8195C15.9056 26.8775 18.0417 27.8266 20.6537 27.6213C21.8604 27.5267 22.9565 27.0788 23.9605 26.4057C24.2765 26.1937 24.6138 26.0898 24.9965 26.1804C25.4512 26.2884 25.9205 26.8109 25.9912 27.3067C26.0632 27.8159 25.8232 28.1638 25.4018 28.4237C23.6511 29.5101 21.7578 30.1059 19.6857 30.0392C15.271 29.8979 11.4909 26.7109 10.6349 22.3962C10.5042 21.7378 10.4922 21.0566 10.4362 20.3848C10.4189 20.1716 10.4335 19.9543 10.4335 19.7397C10.4109 19.7277 10.3869 19.7144 10.3642 19.7024L10.3669 19.7037Z" fill="#8844DA"/>
</g>
</svg>
