<svg width="40" height="41" viewBox="0 0 40 41" fill="none" xmlns="http://www.w3.org/2000/svg">
<g id="Layer_1-2">
<path id="Vector" d="M18.7564 0.5C19.5897 0.5 20.4231 0.5 21.2578 0.5C21.3844 0.523993 21.5098 0.549318 21.6365 0.570645C22.7138 0.746591 23.8112 0.838563 24.8645 1.10781C35.1127 3.73234 41.4555 13.5067 39.7128 23.9408C38.1688 33.1846 30.026 40.2638 20.6551 40.4931C15.847 40.6104 11.5042 39.2401 7.71749 36.2664C3.68274 33.0993 1.20003 28.9699 0.298673 23.9102C0.172004 23.1957 0.0973354 22.4706 0 21.7508C0 20.9177 0 20.0847 0 19.2502C0.0320007 18.9943 0.0666681 18.7384 0.0946686 18.4825C0.565345 14.1598 2.22405 10.3543 5.14144 7.12863C8.2295 3.71635 12.0523 1.59033 16.599 0.801241C17.3137 0.677279 18.0377 0.598636 18.7564 0.5ZM20.1631 37.7219C29.862 37.6966 37.4715 29.7017 37.2608 20.1406C37.0474 10.4516 29.0459 3.02189 19.4817 3.22983C10.3309 3.42977 2.71072 11.31 2.83606 20.5432C2.9694 30.3282 10.8256 37.7259 20.1618 37.7219H20.1631Z" fill="#8844DA"/>
<path id="Vector_2" d="M12.3448 16.8228C13.4208 17.6812 14.4675 18.5396 15.5395 19.3634C16.1075 19.7992 16.8715 19.6193 17.2062 18.9755C17.8995 17.6372 18.5636 16.2843 19.2382 14.9407C18.3622 14.153 18.4409 13.2252 19.0436 12.6467C19.5942 12.1189 20.4836 12.1456 21.0169 12.6881C21.621 13.3025 21.5423 14.0903 20.7743 14.9354C21.4569 16.2963 22.1276 17.6745 22.841 19.0315C23.1596 19.6379 23.925 19.7552 24.4997 19.35C24.5637 19.3047 24.625 19.2567 24.6863 19.2074C25.6717 18.4183 26.6571 17.6292 27.6651 16.8241C27.3944 16.319 27.2571 15.7725 27.5997 15.2819C27.8011 14.9927 28.1264 14.7194 28.4544 14.6035C29.2211 14.3316 30.0225 14.8474 30.2118 15.6498C30.4118 16.4976 29.8651 17.1894 28.7971 17.408C28.6051 18.5223 28.4104 19.6473 28.2184 20.7723C27.8744 22.785 27.5384 24.7977 27.1851 26.8091C26.9851 27.9474 26.1184 28.7218 24.9584 28.7285C21.6636 28.7485 18.3689 28.7485 15.0741 28.7285C13.8781 28.7218 13.0208 27.9287 12.8194 26.7491C12.2968 23.6727 11.7701 20.5963 11.2447 17.5213C11.2381 17.4839 11.2194 17.4493 11.2074 17.416C10.0687 17.1294 9.55537 16.4083 9.8487 15.5139C10.106 14.7274 10.9834 14.3262 11.7447 14.6475C12.5648 14.9927 12.8181 15.8631 12.3474 16.8215L12.3448 16.8228Z" fill="#8844DA"/>
</g>
</svg>
