<svg width="41" height="40" viewBox="0 0 41 40" fill="none" xmlns="http://www.w3.org/2000/svg">
<path d="M20.517 40C17.7587 40 15.1666 39.4751 12.7406 38.4254C10.3146 37.3756 8.19208 35.9465 6.37295 34.138C4.55385 32.3295 3.12024 30.2134 2.07213 27.7897C1.02404 25.366 0.5 22.7764 0.5 20.0207C0.5 17.265 1.02404 14.6764 2.07213 12.2549C3.12024 9.83348 4.55385 7.71832 6.37295 5.90947C8.19208 4.10065 10.3165 2.66353 12.7461 1.59812C15.1757 0.532707 17.7718 0 20.5342 0C23.2967 0 25.8836 0.532707 28.2949 1.59812C30.7063 2.66353 32.8185 4.09714 34.6314 5.89894C36.4443 7.70074 37.8756 9.81506 38.9254 12.2419C39.9751 14.6687 40.5 17.2617 40.5 20.021C40.5 22.7802 39.9766 25.3723 38.9299 27.7973C37.8832 30.2223 36.4514 32.3406 34.6346 34.152C32.8179 35.9634 30.6975 37.391 28.2734 38.4346C25.8494 39.4782 23.264 40 20.517 40ZM18.5494 35.5347V31.7274C17.4526 31.7274 16.5436 31.3292 15.8224 30.5329C15.1011 29.7366 14.7405 28.803 14.7405 27.7321V25.7109L5.38837 16.3572C5.23169 16.9839 5.12201 17.5872 5.05934 18.1669C4.99667 18.7466 4.96533 19.341 4.96533 19.9501C4.96533 23.9057 6.2501 27.3823 8.81962 30.38C11.3892 33.3778 14.6324 35.096 18.5494 35.5347ZM31.9924 30.5993C32.6504 29.8786 33.2301 29.103 33.7315 28.2726C34.2329 27.4422 34.6559 26.5727 35.0006 25.6639C35.3453 24.7552 35.6038 23.8254 35.7761 22.8747C35.9485 21.9239 36.0347 20.9422 36.0347 19.9295C36.0347 16.7378 35.1573 13.8248 33.4025 11.1903C31.6477 8.55579 29.2975 6.6275 26.3519 5.40541V6.20447C26.3519 7.26245 25.9736 8.18499 25.2169 8.97208C24.4603 9.7592 23.5532 10.1528 22.4958 10.1528H18.5494V14.134C18.5494 14.6761 18.3378 15.1116 17.9148 15.4407C17.4918 15.7697 17.0092 15.9342 16.4671 15.9342H12.7209V19.9295H24.528C25.0474 19.9295 25.4812 20.1354 25.8295 20.5473C26.1778 20.9592 26.3519 21.4231 26.3519 21.9391V27.7321H28.2791C29.1565 27.7321 29.9333 27.9984 30.6095 28.5311C31.2857 29.0638 31.7467 29.7532 31.9924 30.5993Z" fill="#8844DA"/>
</svg>
