<svg width="127" height="127" viewBox="0 0 127 127" fill="none" xmlns="http://www.w3.org/2000/svg">
<g clip-path="url(#clip0_5368_36276)">
<path d="M60.7778 49.5854C61.6509 46.966 65.3498 46.966 66.2229 49.5854L71.3426 64.9603C72.4695 68.3401 74.3682 71.411 76.8881 73.9295C79.408 76.4481 82.4799 78.345 85.8603 79.4701L101.227 84.5898C103.847 85.4629 103.847 89.1618 101.227 90.0349L85.8524 95.1546C82.4726 96.2815 79.4017 98.1801 76.8832 100.7C74.3647 103.22 72.4677 106.292 71.3426 109.672L66.2229 125.039C66.0347 125.613 65.6701 126.112 65.1812 126.466C64.6923 126.821 64.1041 127.011 63.5004 127.011C62.8967 127.011 62.3085 126.821 61.8196 126.466C61.3306 126.112 60.9661 125.613 60.7778 125.039L55.6581 109.664C54.532 106.285 52.6346 103.215 50.1161 100.697C47.5976 98.1781 44.5273 96.2807 41.1484 95.1546L25.7734 90.0349C25.1999 89.8467 24.7004 89.4821 24.3463 88.9932C23.9922 88.5043 23.8015 87.916 23.8015 87.3123C23.8015 86.7087 23.9922 86.1204 24.3463 85.6315C24.7004 85.1426 25.1999 84.778 25.7734 84.5898L41.1484 79.4701C44.5273 78.344 47.5976 76.4465 50.1161 73.9281C52.6346 71.4096 54.532 68.3393 55.6581 64.9603L60.7778 49.5854ZM30.1153 9.11208C30.2291 8.76834 30.4483 8.46922 30.7419 8.25721C31.0354 8.0452 31.3883 7.93109 31.7504 7.93109C32.1125 7.93109 32.4654 8.0452 32.7589 8.25721C33.0524 8.46922 33.2717 8.76834 33.3855 9.11208L36.4573 18.3355C37.8305 22.4471 41.0531 25.6697 45.1648 27.0429L54.3881 30.1147C54.7319 30.2285 55.031 30.4478 55.243 30.7413C55.455 31.0349 55.5691 31.3877 55.5691 31.7498C55.5691 32.1119 55.455 32.4648 55.243 32.7583C55.031 33.0519 54.7319 33.2711 54.3881 33.385L45.1648 36.4568C43.1369 37.1324 41.2943 38.271 39.7829 39.7824C38.2716 41.2938 37.1329 43.1364 36.4573 45.1642L33.3855 54.3876C33.2717 54.7313 33.0524 55.0304 32.7589 55.2425C32.4654 55.4545 32.1125 55.5686 31.7504 55.5686C31.3883 55.5686 31.0354 55.4545 30.7419 55.2425C30.4483 55.0304 30.2291 54.7313 30.1153 54.3876L27.0434 45.1642C26.3678 43.1364 25.2292 41.2938 23.7178 39.7824C22.2065 38.271 20.3638 37.1324 18.336 36.4568L9.11264 33.385C8.7689 33.2711 8.46977 33.0519 8.25776 32.7583C8.04575 32.4648 7.93164 32.1119 7.93164 31.7498C7.93164 31.3877 8.04575 31.0349 8.25776 30.7413C8.46977 30.4478 8.7689 30.2285 9.11264 30.1147L18.336 27.0429C20.3638 26.3673 22.2065 25.2287 23.7178 23.7173C25.2292 22.2059 26.3678 20.3633 27.0434 18.3355L30.1153 9.11208ZM86.2254 0.785646C86.3038 0.559636 86.4506 0.363656 86.6455 0.224954C86.8404 0.0862512 87.0737 0.0117187 87.3129 0.0117188C87.5521 0.0117188 87.7854 0.0862512 87.9802 0.224954C88.1751 0.363656 88.322 0.559636 88.4003 0.785646L90.4482 6.92927C91.361 9.67565 93.5121 11.8267 96.2584 12.7395L102.402 14.7874C102.628 14.8658 102.824 15.0126 102.963 15.2075C103.101 15.4024 103.176 15.6356 103.176 15.8748C103.176 16.114 103.101 16.3473 102.963 16.5422C102.824 16.7371 102.628 16.8839 102.402 16.9623L96.2584 19.0101C94.905 19.4604 93.6752 20.22 92.6666 21.2285C91.658 22.2371 90.8984 23.467 90.4482 24.8204L88.4003 30.964C88.322 31.19 88.1751 31.386 87.9802 31.5247C87.7854 31.6634 87.5521 31.7379 87.3129 31.7379C87.0737 31.7379 86.8404 31.6634 86.6455 31.5247C86.4506 31.386 86.3038 31.19 86.2254 30.964L84.1776 24.8204C83.7273 23.467 82.9678 22.2371 81.9592 21.2285C80.9506 20.22 79.7208 19.4604 78.3673 19.0101L72.2316 16.9623C72.0056 16.8839 71.8096 16.7371 71.6709 16.5422C71.5322 16.3473 71.4577 16.114 71.4577 15.8748C71.4577 15.6356 71.5322 15.4024 71.6709 15.2075C71.8096 15.0126 72.0056 14.8658 72.2316 14.7874L78.3753 12.7395C81.1216 11.8267 83.2727 9.67565 84.1855 6.92927L86.2254 0.793583V0.785646Z" fill="#8844DA"/>
</g>
<defs>
<clipPath id="clip0_5368_36276">
<rect width="127" height="127" fill="white"/>
</clipPath>
</defs>
</svg>
