<svg width="105" height="105" viewBox="0 0 105 105" fill="none" xmlns="http://www.w3.org/2000/svg">
<path d="M17.5 35H8.75V87.5C8.75 89.8207 9.67187 92.0462 11.3128 93.6872C12.9538 95.3281 15.1794 96.25 17.5 96.25H70V87.5H17.5V35Z" fill="#8844DA"/>
<path d="M87.5 8.75H35C32.6794 8.75 30.4538 9.67187 28.8128 11.3128C27.1719 12.9538 26.25 15.1794 26.25 17.5V70C26.25 72.3206 27.1719 74.5462 28.8128 76.1872C30.4538 77.8281 32.6794 78.75 35 78.75H87.5C89.8206 78.75 92.0462 77.8281 93.6872 76.1872C95.3281 74.5462 96.25 72.3206 96.25 70V17.5C96.25 15.1794 95.3281 12.9538 93.6872 11.3128C92.0462 9.67187 89.8206 8.75 87.5 8.75ZM48.125 61.25V26.25L78.75 43.75L48.125 61.25Z" fill="#8844DA"/>
</svg>
