<svg width="26" height="19" viewBox="0 0 26 19" fill="none" xmlns="http://www.w3.org/2000/svg">
<path d="M0.5 1.9C0.5 1.39609 0.697544 0.912816 1.04917 0.556497C1.40081 0.200178 1.87772 0 2.375 0H23.625C24.1223 1.06191e-08 24.5992 0.200178 24.9508 0.556497C25.3025 0.912816 25.5 1.39609 25.5 1.9C25.5 2.40391 25.3025 2.88718 24.9508 3.2435C24.5992 3.59982 24.1223 3.8 23.625 3.8H2.375C1.87772 3.8 1.40081 3.59982 1.04917 3.2435C0.697544 2.88718 0.5 2.40391 0.5 1.9ZM5.5 9.5C5.5 8.99609 5.69754 8.51282 6.04917 8.1565C6.40081 7.80018 6.87772 7.6 7.375 7.6H18.625C19.1223 7.6 19.5992 7.80018 19.9508 8.1565C20.3025 8.51282 20.5 8.99609 20.5 9.5C20.5 10.0039 20.3025 10.4872 19.9508 10.8435C19.5992 11.1998 19.1223 11.4 18.625 11.4H7.375C6.87772 11.4 6.40081 11.1998 6.04917 10.8435C5.69754 10.4872 5.5 10.0039 5.5 9.5ZM11.125 15.2C10.6277 15.2 10.1508 15.4002 9.79917 15.7565C9.44754 16.1128 9.25 16.5961 9.25 17.1C9.25 17.6039 9.44754 18.0872 9.79917 18.4435C10.1508 18.7998 10.6277 19 11.125 19H14.875C15.3723 19 15.8492 18.7998 16.2008 18.4435C16.5525 18.0872 16.75 17.6039 16.75 17.1C16.75 16.5961 16.5525 16.1128 16.2008 15.7565C15.8492 15.4002 15.3723 15.2 14.875 15.2H11.125Z" fill="#8844DA" fill-opacity="0.5"/>
</svg>
